<?xml version="1.0" encoding="utf-8"?>
<!-- Generator: Adobe Illustrator 17.1.0, SVG Export Plug-In . SVG Version: 6.00 Build 0)  -->
<!DOCTYPE svg PUBLIC "-//W3C//DTD SVG 1.1//EN" "http://www.w3.org/Graphics/SVG/1.1/DTD/svg11.dtd">
<svg version="1.1" xmlns="http://www.w3.org/2000/svg" xmlns:xlink="http://www.w3.org/1999/xlink" x="0px" y="0px"
	 viewBox="0 0 45.3 64.2" enable-background="new 0 0 45.3 64.2" xml:space="preserve">
<g id="grid" display="none">
	<rect x="4950" y="1.5" display="inline" fill="#EFEFEF" width="80" height="1588"/>
	<rect x="5030" y="1.5" display="inline" fill="#FFFFFF" width="80" height="1588"/>
	<rect x="5110" y="1.5" display="inline" fill="#EFEFEF" width="80" height="1588"/>
	<rect x="5190" y="1.5" display="inline" fill="#FFFFFF" width="80" height="1588"/>
	<rect x="5268" y="1.5" display="inline" fill="#EFEFEF" width="82" height="1588"/>
	<rect x="5350" y="1.5" display="inline" fill="#FFFFFF" width="79" height="1588"/>
	<rect x="5429" y="1.5" display="inline" fill="#EFEFEF" width="80" height="1588"/>
	<rect x="5509" y="1.5" display="inline" fill="#FFFFFF" width="80" height="1588"/>
	<rect x="5589" y="1.5" display="inline" fill="#EFEFEF" width="80" height="1588"/>
	<rect x="5669" y="1.5" display="inline" fill="#FFFFFF" width="80" height="1588"/>
	<rect x="5749" y="1.5" display="inline" fill="#EFEFEF" width="80" height="1588"/>
	<rect x="5829" y="1.5" display="inline" fill="#FFFFFF" width="80" height="1588"/>
	<rect x="4951" y="642.5" display="inline" fill="#EFEFEF" width="960" height="94"/>
</g>
<g id="Layer_1">
	<g>
		<path fill="#FFFFFF" d="M22.3,31.5h-3.5l1.2-5.1c0-0.1,0-0.4,0-0.5c0-0.3-0.3-0.7-0.6-0.7c-0.2,0-0.3,0-0.4,0.1l-5.8,7.5
			c-0.1,0.1-0.1,0-0.1,0.2c0,0.3,0.3,0.4,0.6,0.4H17l-1.2,4.7c0,0.1,0,0.2,0,0.3c0,0.3,0.3,0.6,0.6,0.6c0.2,0,0.3-0.1,0.4-0.2
			l5.8-7.6c0.1-0.1,0.1,0.2,0.1,0.2S22.6,31.5,22.3,31.5z"/>
		<path fill="#FFFFFF" d="M25.3,19.5h-1.6l0.5-2.1c0,0,0-0.1,0-0.1c0-0.1-0.1-0.3-0.3-0.3c-0.1,0-0.2,0-0.2,0.1l-2.6,3.4
			c0,0-0.1,0.4-0.1,0.5c0,0.1,0.1,0.6,0.3,0.6H23l-0.5,1.7c0,0,0-0.1,0-0.1c0,0.1,0.1,0.2,0.3,0.2c0.1,0,0.2-0.1,0.2-0.1l2.6-3.4
			c0,0,0.1,0,0.1,0C25.5,19.5,25.4,19.5,25.3,19.5z"/>
		<path fill="#FFFFFF" d="M36,39.5h-2.4l0.8-3.1c0,0,0-0.1,0-0.2c0-0.2-0.2-0.4-0.4-0.4c-0.1,0-0.2,0-0.3,0.1L29.8,41
			c-0.1,0.1-0.1,0.1-0.1,0.2c0,0.2,0.2,0.3,0.4,0.3h2.4l-0.8,3.1c0,0,0,0.1,0,0.2c0,0.2,0.2,0.4,0.4,0.4c0.1,0,0.2,0,0.3-0.1
			l3.9-5.1c0.1-0.1,0.1-0.1,0.1-0.2C36.4,39.6,36.2,39.5,36,39.5z"/>
		<path fill="#FFFFFF" d="M44.7,41.5L44.7,41.5C43.8,28.5,23,1.3,23,1.3S2.1,28.5,1.3,41.5h0c0,0,0-0.1,0,0.1c0,0.1,0-0.1,0-0.1h0
			c0.4,12,10,20.9,21.7,20.9C34.7,62.4,44.2,53.5,44.7,41.5L44.7,41.5C44.7,41.5,44.6,41.7,44.7,41.5C44.6,41.4,44.7,41.5,44.7,41.5
			z M40,41.8l0.1,0.2c-0.2,4.5-2,8.6-5.2,11.8c-3.2,3.1-7.5,4.8-11.9,4.8c-1,0-1.9-0.1-2.8-0.2L30,45.6c0.1-0.2,0.2-0.1,0.2-0.4
			c0-0.6-0.5-0.8-1.1-0.8h-6.4l2.1-8.4c0-0.1,0-0.4,0-0.5c0-0.6-0.5-1.1-1-1.1c-0.3,0-0.6,0.1-0.8,0.3L12.5,48.5
			c-0.1,0.2-0.2,0.5-0.2,0.8c0,0.6,0.5,1.2,1.1,1.2h6.4l-2,7.4c-2.5-0.8-4.8-2.2-6.8-4.1c-3.2-3.1-5-7.3-5.1-11.8L6,41.9v0v-0.1
			v-0.2c0-2.6,1.6-9,10.3-22.8c2.4-3.9,4.8-7.4,6.7-10.1c1.9,2.7,4.3,6.2,6.7,10.1C38.4,32.6,39.9,39,40.1,41.6L40,41.8L40,41.8
			L40,41.8z"/>
	</g>
</g>
<g id="Layer_3">
</g>
</svg>
